#N canvas 200 41 1129 687 10;
#X declare -path ../;
#N canvas 65 23 1280 699 input-output 1;
#X obj 101 101 cnv 15 798 78 empty empty Sampler-Batterie 260 20 0
34 -21525 -262144 0;
#N canvas 406 214 450 300 close 0;
#X obj 103 169 bng 15 250 50 0 empty empty empty 17 7 0 10 -262144
-1 -1;
#X obj 101 101 hradio 28 1 0 2 empty empty empty 0 -8 0 10 -262144
-1 -1 0;
#X obj 102 102 cnv 15 54 26 empty empty Quitter 3 12 0 12 -233017 -66577
0;
#X obj 91 48 inlet;
#X msg 104 193 \; pd-example/example2.pd menuclose \;;
#X connect 0 0 4 0;
#X connect 1 0 0 0;
#X connect 3 0 0 0;
#X coords 0 -1 1 1 58 30 1 100 100;
#X restore 1053 205 pd close;
#X obj 545 606 dac~;
#X obj 545 582 *~ 1;
#X obj 471 191 arduino/arduino_in;
#X obj 859 513 audio/tempo;
#X obj 239 190 extra/keyboard;
#X obj 522 147 cnv 15 170 30 empty empty Montage:1 10 15 0 28 -233017
-66577 0;
#X obj 404 453 audio/4_free_sound 2;
#X obj 867 56 declare -path ../;
#X obj 554 453 audio/4_free_sound 1;
#X obj 554 484 effect/main_effect;
#X obj 40 203 arduino/arduino;
#X obj 834 341 extra/analog4button;
#X obj 154 361 extra/sv \$1_main_effect_del_feedback;
#X floatatom 896 387 5 0 0 0 - - -, f 5;
#X obj 311 291 * -0.5;
#X obj 311 315 + 127;
#X obj 352 147 cnv 15 170 30 empty empty Niveau:1 20 15 0 28 -233017
-66577 0;
#X connect 3 0 2 0;
#X connect 3 0 2 1;
#X connect 4 0 13 0;
#X connect 4 1 16 0;
#X connect 4 6 8 1;
#X connect 4 7 8 2;
#X connect 4 8 8 3;
#X connect 4 9 8 4;
#X connect 4 10 10 1;
#X connect 4 11 10 2;
#X connect 4 12 10 3;
#X connect 4 13 10 4;
#X connect 6 6 8 1;
#X connect 6 7 8 2;
#X connect 6 8 8 3;
#X connect 6 9 8 4;
#X connect 8 0 11 0;
#X connect 10 0 11 0;
#X connect 11 0 3 0;
#X connect 11 2 3 0;
#X connect 13 0 5 2;
#X connect 13 0 15 0;
#X connect 16 0 17 0;
#X connect 17 0 14 1;
#X coords 0 -1 1 1 800 80 2 100 100;
#X restore 56 61 pd input-output;
#X obj 138 591 UI/ui_tempo_small;
#X obj 561 157 cnv 15 550 300 empty empty empty 20 12 0 14 -204217
-66577 0;
#X obj 6 158 cnv 15 550 300 empty empty empty 20 12 0 14 -125737 -66577
0;
#X obj 594 337 UI/ui_4_free_sound 2;
#X obj 980 188 UI/ui_song_choice;
#X obj 380 222 UI/ui_effect_del;
#X obj 65 341 UI/ui_4_free_sound 1;
