#N canvas 386 149 528 387 10;
#X obj 149 36 inlet;
#X floatatom 164 105 5 0 0 0 - - -, f 5;
#X obj 164 168 == 168;
#X obj 214 168 == 152;
#X obj 264 168 == 219;
#X obj 314 168 == 190;
#X obj 363 168 == 135;
#X obj 164 209 sel 1;
#X obj 214 209 sel 1;
#X obj 264 209 sel 1;
#X obj 314 209 sel 1;
#X obj 363 209 sel 1;
#X obj 165 318 outlet;
#X msg 162 249 1;
#X msg 217 249 2;
#X msg 269 249 3;
#X msg 319 248 4;
#X msg 367 248 5;
#X connect 0 0 1 0;
#X connect 1 0 2 0;
#X connect 1 0 3 0;
#X connect 1 0 4 0;
#X connect 1 0 5 0;
#X connect 1 0 6 0;
#X connect 2 0 7 0;
#X connect 3 0 8 0;
#X connect 4 0 9 0;
#X connect 5 0 10 0;
#X connect 6 0 11 0;
#X connect 7 0 13 0;
#X connect 8 0 14 0;
#X connect 9 0 15 0;
#X connect 10 0 16 0;
#X connect 11 0 17 0;
#X connect 13 0 12 0;
#X connect 14 0 12 0;
#X connect 15 0 12 0;
#X connect 16 0 12 0;
#X connect 17 0 12 0;
