#N canvas 281 139 807 699 10;
#X obj 385 502 *~;
#X obj 400 476 vline~;
#X obj 385 533 outlet~;
#X obj 359 332 vline~;
#X obj 214 260 *~ 2;
#X obj 214 282 -~ 1;
#X obj 214 237 phasor~;
#X msg 663 269 0 500;
#X obj 334 420 *~ 0.5;
#X obj 385 420 *~ 0.5;
#X obj 334 364 vcf~ 10, f 9;
#X obj 134 233 *~ 2;
#X obj 134 255 -~ 1;
#X obj 134 210 phasor~;
#X msg 512 269 0 100;
#X obj 134 282 *~;
#X obj 134 187 * 0.99;
#X msg 556 269 1 10 \, 0.5 900 10;
#X msg 357 269 6000 1000 \, 800 1500 1500;
#X obj 14 245 noise~;
#X obj 14 285 *~ 0.05;
#X obj 214 157 * 0.5;
#X floatatom 214 51 5 0 0 0 - - -, f 5;
#X obj 146 52 tgl 15 0 empty empty empty 17 7 0 10 -262144 -1 -1 1
1;
#N canvas 575 86 600 474 read_midi 0;
#X obj 174 101 i 0;
#X obj 174 130 sel 0;
#X obj 168 195 i 0;
#X obj 155 67 t b f;
#X obj 135 269 i 0;
#X obj 197 270 t b f;
#X msg 197 351 1;
#X text 129 251 derniere note jouée;
#X obj 89 196 i 0;
#X obj 201 161 bang;
#X obj 89 293 ==;
#X obj 89 319 sel 1;
#X msg 89 350 0;
#X obj 89 240 t f b;
#X obj 151 391 outlet;
#X obj 155 4 inlet;
#X obj 224 390 outlet;
#X obj 155 36 unpack f f;
#X connect 0 0 1 0;
#X connect 1 0 8 0;
#X connect 1 1 9 0;
#X connect 2 0 4 1;
#X connect 2 0 5 0;
#X connect 3 0 0 0;
#X connect 3 1 2 1;
#X connect 3 1 8 1;
#X connect 4 0 10 1;
#X connect 5 0 6 0;
#X connect 5 1 16 0;
#X connect 6 0 14 0;
#X connect 8 0 13 0;
#X connect 9 0 2 0;
#X connect 10 0 11 0;
#X connect 11 0 12 0;
#X connect 12 0 14 0;
#X connect 13 0 10 0;
#X connect 13 1 4 0;
#X connect 15 0 17 0;
#X connect 17 0 3 0;
#X connect 17 1 0 1;
#X restore 145 -7 pd read_midi;
#X obj 214 124 mtof;
#X obj 449 143 sel 1 0;
#X obj 84 263 / 100;
#X obj 25 207 r \$0_noisecontrol;
#N canvas 512 141 569 339 note_manager 0;
#X obj 173 51 inlet;
#X obj 350 49 inlet;
#X obj 489 50 inlet;
#X obj 123 51 inlet;
#X obj 122 203 pack f f;
#X obj 118 249 outlet;
#X obj 502 133 inlet;
#X obj 27 100 t b f;
#X obj 167 101 t b f;
#X obj 307 99 t b f;
#X obj 447 101 t b f;
#N canvas 489 294 601 453 chord_choice 0;
#X obj 118 30 inlet;
#X obj 167 30 inlet;
#X obj 219 30 inlet;
#X obj 268 30 inlet;
#X obj 118 135 i 0;
#X obj 118 168 pack f f;
#X obj 118 97 t b f;
#X msg 118 62 1;
#X msg 167 62 2;
#X msg 219 62 3;
#X msg 268 62 4;
#X obj 383 75 hradio 15 1 0 5 empty empty empty 0 -8 0 10 -262144 -1
-1 4;
#X text 414 50 chord choice;
#X obj 383 30 inlet;
#N canvas 353 108 450 300 chord1 0;
#X obj 154 43 inlet;
#X obj 154 72 sel 1 2 3 4;
#X obj 174 202 outlet;
#X msg 145 117 48;
#X msg 184 117 55;
#X msg 225 117 60;
#X msg 263 117 63;
#X connect 0 0 1 0;
#X connect 1 0 3 0;
#X connect 1 1 4 0;
#X connect 1 2 5 0;
#X connect 1 3 6 0;
#X connect 3 0 2 0;
#X connect 4 0 2 0;
#X connect 5 0 2 0;
#X connect 6 0 2 0;
#X restore 31 281 pd chord1;
#N canvas 528 128 450 300 chord2 0;
#X obj 154 43 inlet;
#X obj 154 72 sel 1 2 3 4;
#X obj 174 202 outlet;
#X msg 145 117 51;
#X msg 184 117 58;
#X msg 225 117 63;
#X msg 264 117 67;
#X connect 0 0 1 0;
#X connect 1 0 3 0;
#X connect 1 1 4 0;
#X connect 1 2 5 0;
#X connect 1 3 6 0;
#X connect 3 0 2 0;
#X connect 4 0 2 0;
#X connect 5 0 2 0;
#X connect 6 0 2 0;
#X restore 101 281 pd chord2;
#N canvas 703 153 450 300 chord3 0;
#X obj 154 43 inlet;
#X obj 154 72 sel 1 2 3 4;
#X obj 174 202 outlet;
#X msg 145 117 55;
#X msg 225 117 65;
#X msg 264 117 67;
#X msg 184 117 62;
#X connect 0 0 1 0;
#X connect 1 0 3 0;
#X connect 1 1 6 0;
#X connect 1 2 4 0;
#X connect 1 3 5 0;
#X connect 3 0 2 0;
#X connect 4 0 2 0;
#X connect 5 0 2 0;
#X connect 6 0 2 0;
#X restore 170 281 pd chord3;
#N canvas 651 69 450 300 chord4 0;
#X obj 154 43 inlet;
#X obj 154 72 sel 1 2 3 4;
#X obj 174 202 outlet;
#X msg 145 117 53;
#X msg 184 117 56;
#X msg 225 117 60;
#X msg 264 117 63;
#X connect 0 0 1 0;
#X connect 1 0 3 0;
#X connect 1 1 4 0;
#X connect 1 2 5 0;
#X connect 1 3 6 0;
#X connect 3 0 2 0;
#X connect 4 0 2 0;
#X connect 5 0 2 0;
#X connect 6 0 2 0;
#X restore 240 281 pd chord4;
#X obj 118 198 route 1 2 3 4 5;
#X obj 129 389 + 0;
#X obj 239 353 * 12;
#X floatatom 265 317 5 0 0 0 - - -, f 5;
#X obj 129 421 outlet;
#X obj 348 299 r \$0_octave;
#X obj 225 380 t b f;
#X connect 0 0 7 0;
#X connect 1 0 8 0;
#X connect 2 0 9 0;
#X connect 3 0 10 0;
#X connect 4 0 5 0;
#X connect 5 0 18 0;
#X connect 6 0 4 0;
#X connect 6 1 5 1;
#X connect 7 0 6 0;
#X connect 8 0 6 0;
#X connect 9 0 6 0;
#X connect 10 0 6 0;
#X connect 11 0 4 1;
#X connect 13 0 11 0;
#X connect 14 0 19 0;
#X connect 15 0 19 0;
#X connect 16 0 19 0;
#X connect 17 0 19 0;
#X connect 18 0 14 0;
#X connect 18 1 15 0;
#X connect 18 2 16 0;
#X connect 18 3 17 0;
#X connect 19 0 22 0;
#X connect 20 0 24 0;
#X connect 21 0 20 0;
#X connect 23 0 21 0;
#X connect 24 0 19 0;
#X connect 24 1 19 1;
#X restore 416 175 pd chord_choice;
#X obj 27 77 ../extra/sv midinote1;
#X obj 167 77 ../extra/sv midinote2;
#X obj 307 77 ../extra/sv midinote3;
#X obj 447 77 ../extra/sv midinote4;
#X connect 0 0 13 1;
#X connect 1 0 14 1;
#X connect 2 0 15 1;
#X connect 3 0 12 1;
#X connect 4 0 5 0;
#X connect 6 0 11 4;
#X connect 7 0 11 0;
#X connect 7 1 4 1;
#X connect 8 0 11 1;
#X connect 8 1 4 1;
#X connect 9 0 11 2;
#X connect 9 1 4 1;
#X connect 10 0 11 3;
#X connect 10 1 4 1;
#X connect 11 0 4 0;
#X connect 12 0 7 0;
#X connect 13 0 8 0;
#X connect 14 0 9 0;
#X connect 15 0 10 0;
#X restore 144 -67 pd note_manager;
#X obj 313 -81 hradio 15 1 0 5 empty empty empty 0 -8 0 10 -262144
-1 -1 4;
#X obj 138 -144 inlet;
#X obj 178 -144 inlet;
#X obj 218 -144 inlet;
#X obj 258 -144 inlet;
#X obj 610 -140 inlet;
#X obj 313 -103 ../extra/sv chord;
#X obj 609 -19 s \$0_noisecontrol;
#X obj 609 -56 / 2;
#X obj 318 -143 inlet;
#X obj 489 -142 inlet;
#X obj 489 -111 - 127;
#X obj 489 -20 s \$0_octave;
#X floatatom 489 -38 5 0 0 0 - - -, f 5;
#X obj 489 -59 i 0;
#X obj 489 -82 / 40;
#X obj 610 -110 - 127;
#X connect 0 0 2 0;
#X connect 1 0 0 1;
#X connect 3 0 10 1;
#X connect 4 0 5 0;
#X connect 4 0 15 1;
#X connect 5 0 10 0;
#X connect 6 0 4 0;
#X connect 7 0 1 0;
#X connect 8 0 0 0;
#X connect 9 0 0 0;
#X connect 10 0 8 0;
#X connect 10 1 9 0;
#X connect 11 0 12 0;
#X connect 12 0 15 0;
#X connect 13 0 11 0;
#X connect 14 0 3 0;
#X connect 15 0 10 0;
#X connect 16 0 13 0;
#X connect 17 0 1 0;
#X connect 18 0 3 0;
#X connect 19 0 20 0;
#X connect 20 0 10 0;
#X connect 21 0 6 0;
#X connect 21 0 16 0;
#X connect 22 0 25 0;
#X connect 23 0 26 0;
#X connect 24 0 23 0;
#X connect 24 1 22 0;
#X connect 25 0 21 0;
#X connect 26 0 18 0;
#X connect 26 0 17 0;
#X connect 26 1 7 0;
#X connect 26 1 14 0;
#X connect 27 0 20 1;
#X connect 28 0 27 0;
#X connect 29 0 24 0;
#X connect 30 0 29 4;
#X connect 31 0 29 0;
#X connect 32 0 29 1;
#X connect 33 0 29 2;
#X connect 34 0 29 3;
#X connect 35 0 46 0;
#X connect 36 0 30 0;
#X connect 38 0 37 0;
#X connect 39 0 36 1;
#X connect 40 0 41 0;
#X connect 41 0 45 0;
#X connect 43 0 42 0;
#X connect 44 0 43 0;
#X connect 45 0 44 0;
#X connect 46 0 38 0;
