#N canvas 378 60 635 520 10;
#X obj 101 103 cnv 15 138 15 empty empty EFFET 45 8 0 14 -228856 -33289
0;
#X obj 101 123 cnv 15 138 75 empty empty DELAY 30 12 0 14 -1 -262144
0;
#X obj 194 124 vsl 40 70 1.27 90 0 0 empty empty empty 0 -9 0 10 -99865
-4034 -162280 135 1;
#X msg 363 286 set \$1;
#X obj 236 469 ../extra/sv \$1_main_effect_delsend;
#X obj 357 241 ../extra/sv \$1_main_effect_del_feedback;
#X obj 92 268 ../extra/sv \$1_main_effect_del_divide;
#X obj 105 123 vradio 15 1 0 5 empty empty empty 0 -8 0 10 -262144
-128992 -1 3;
#X obj 92 242 + 1;
#X msg 40 362 set \$1;
#X obj 67 312 - 1;
#X obj 303 384 vsl 40 70 1.27 127 1 0 empty empty empty 0 -9 0 10 -99865
-4034 -162280 0 1;
#X floatatom 112 314 5 0 0 0 - - -, f 5;
#X connect 2 0 5 1;
#X connect 3 0 2 0;
#X connect 5 0 3 0;
#X connect 6 0 10 0;
#X connect 6 0 12 0;
#X connect 7 0 8 0;
#X connect 8 0 6 1;
#X connect 9 0 7 0;
#X connect 10 0 9 0;
#X connect 11 0 4 1;
#X coords 0 -1 1 1 140 100 2 100 100;
