#N canvas 299 78 920 617 10;
#X obj -88 112 r \$1_\$2_readloop_slider_ui;
#X obj -84 190 s \$1_\$2_click_fromUI;
#X obj 147 60 bng 15 250 50 0 empty empty empty 17 7 0 10 -262144 -1
-1;
#X obj 194 60 bng 15 250 50 0 empty empty empty 17 7 0 10 -262144 -1
-1;
#X obj 82 230 hsl 95 23 0 1 0 0 empty empty empty -2 -8 0 10 -99865
-4034 -1 0 1;
#X obj 149 23 sel 1 0;
#X obj 100 100 cnv 15 101 83 empty empty note 20 12 0 14 -33289 -262144
0;
#N canvas 399 136 1038 529 play 0;
#X text 434 10 label-color;
#X text 449 35 label-color;
#X obj 507 84 pack 22 0 0 \$0;
#X obj 349 7 t b f;
#X msg 372 -27 2;
#X msg 508 117 \; \$4_playcnv color \$1 \$2 \$3;
#X obj 523 -84 loadbang;
#X obj 115 101 hradio 38 1 0 2 empty empty empty 0 -8 0 10 -262144
-1 -1 0;
#X obj 101 101 cnv 15 98 38 empty \$0_playcnv PLAY 35 17 0 19 -1 -66577
0;
#X obj 107 108 cnv 15 20 20 empty \$0_playsquare empty 6 9 0 14 -262144
-262144 0;
#X obj 105 214 bang;
#X obj 101 260 outlet;
#X obj 336 -240 inlet;
#X obj 396 -240 inlet;
#X obj 335 -199 t b b;
#X obj 395 -198 t b b;
#X obj 92 -79 pack 22 0 0 \$0;
#X msg 92 -53 \; \$4_playsquare color \$1 \$2 \$3;
#X msg 335 -27 30;
#X obj 27 -191 ../extra/sv chord;
#X obj 27 -167 sel 1 2 3 4 5;
#X floatatom 196 -134 5 0 0 0 - - -, f 5;
#X msg 29 -133 18;
#X msg 69 -133 46;
#X msg 151 -133 13;
#X msg 109 -133 0;
#X connect 2 0 5 0;
#X connect 3 0 2 0;
#X connect 3 1 2 2;
#X connect 4 0 3 0;
#X connect 6 0 4 0;
#X connect 7 0 10 0;
#X connect 10 0 11 0;
#X connect 12 0 14 0;
#X connect 13 0 15 0;
#X connect 14 0 18 0;
#X connect 15 0 4 0;
#X connect 16 0 17 0;
#X connect 18 0 3 0;
#X connect 19 0 20 0;
#X connect 20 0 22 0;
#X connect 20 1 23 0;
#X connect 20 2 25 0;
#X connect 20 3 24 0;
#X connect 21 0 16 0;
#X connect 22 0 16 0;
#X connect 23 0 16 0;
#X connect 24 0 16 0;
#X connect 25 0 16 0;
#X coords 0 -1 1 1 100 40 2 100 100;
#X restore 101 123 pd play;
#X obj 148 -8 ../extra/sv midinote\$1;
#X connect 0 0 4 0;
#X connect 2 0 7 0;
#X connect 3 0 7 1;
#X connect 5 0 2 0;
#X connect 5 1 3 0;
#X connect 7 0 1 0;
#X connect 8 0 5 0;
#X coords 0 -1 1 1 102 85 2 100 100;
